<svg id="svg" version="1.1" xmlns="http://www.w3.org/2000/svg" xmlns:xlink="http://www.w3.org/1999/xlink" width="400" height="400" viewBox="0, 0, 400,400"><g id="svgg"><path id="path0" d="M80.000 88.000 L 80.000 96.000 72.000 96.000 L 64.000 96.000 64.000 104.000 L 64.000 112.000 56.000 112.000 L 48.000 112.000 48.000 128.000 L 48.000 144.000 40.000 144.000 L 32.000 144.000 32.000 160.000 L 32.000 176.000 24.000 176.000 L 16.000 176.000 16.000 216.000 L 16.000 256.000 24.000 256.000 L 32.000 256.000 32.000 272.000 L 32.000 288.000 40.000 288.000 L 48.000 288.000 48.000 304.000 L 48.000 320.000 56.000 320.000 L 64.000 320.000 64.000 328.000 L 64.000 336.000 72.000 336.000 L 80.000 336.000 80.000 344.000 L 80.000 352.000 96.000 352.000 L 112.000 352.000 112.000 360.000 L 112.000 368.000 200.000 368.000 L 288.000 368.000 288.000 360.000 L 288.000 352.000 304.000 352.000 L 320.000 352.000 320.000 344.000 L 320.000 336.000 328.000 336.000 L 336.000 336.000 336.000 328.000 L 336.000 320.000 344.000 320.000 L 352.000 320.000 352.000 304.000 L 352.000 288.000 360.000 288.000 L 368.000 288.000 368.000 272.000 L 368.000 256.000 376.000 256.000 L 384.000 256.000 384.000 216.000 L 384.000 176.000 376.000 176.000 L 368.000 176.000 368.000 160.000 L 368.000 144.000 360.000 144.000 L 352.000 144.000 352.000 128.000 L 352.000 112.000 344.000 112.000 L 336.000 112.000 336.000 104.000 L 336.000 96.000 328.000 96.000 L 320.000 96.000 320.000 88.000 L 320.000 80.000 200.000 80.000 L 80.000 80.000 80.000 88.000 M144.000 208.000 L 144.000 256.000 128.000 256.000 L 112.000 256.000 112.000 248.000 L 112.000 240.000 104.000 240.000 L 96.000 240.000 96.000 208.000 L 96.000 176.000 104.000 176.000 L 112.000 176.000 112.000 168.000 L 112.000 160.000 128.000 160.000 L 144.000 160.000 144.000 208.000 M288.000 168.000 L 288.000 176.000 296.000 176.000 L 304.000 176.000 304.000 208.000 L 304.000 240.000 296.000 240.000 L 288.000 240.000 288.000 248.000 L 288.000 256.000 272.000 256.000 L 256.000 256.000 256.000 208.000 L 256.000 160.000 272.000 160.000 L 288.000 160.000 288.000 168.000 M112.000 280.000 L 112.000 288.000 88.000 288.000 L 64.000 288.000 64.000 280.000 L 64.000 272.000 88.000 272.000 L 112.000 272.000 112.000 280.000 M336.000 280.000 L 336.000 288.000 312.000 288.000 L 288.000 288.000 288.000 280.000 L 288.000 272.000 312.000 272.000 L 336.000 272.000 336.000 280.000 " stroke="none" fill="#e4c4dc" fill-rule="evenodd"></path><path id="path1" d="M0.000 32.000 L 0.000 64.000 8.000 64.000 L 16.000 64.000 16.000 56.000 L 16.000 48.000 32.000 48.000 L 48.000 48.000 48.000 24.000 L 48.000 0.000 24.000 0.000 L 0.000 0.000 0.000 32.000 M128.000 24.000 L 128.000 48.000 136.000 48.000 L 144.000 48.000 144.000 40.000 L 144.000 32.000 200.000 32.000 L 256.000 32.000 256.000 40.000 L 256.000 48.000 264.000 48.000 L 272.000 48.000 272.000 24.000 L 272.000 0.000 200.000 0.000 L 128.000 0.000 128.000 24.000 M352.000 24.000 L 352.000 48.000 368.000 48.000 L 384.000 48.000 384.000 56.000 L 384.000 64.000 392.000 64.000 L 400.000 64.000 400.000 32.000 L 400.000 0.000 376.000 0.000 L 352.000 0.000 352.000 24.000 M80.000 72.000 L 80.000 80.000 72.000 80.000 L 64.000 80.000 64.000 88.000 L 64.000 96.000 56.000 96.000 L 48.000 96.000 48.000 104.000 L 48.000 112.000 40.000 112.000 L 32.000 112.000 32.000 128.000 L 32.000 144.000 24.000 144.000 L 16.000 144.000 16.000 160.000 L 16.000 176.000 8.000 176.000 L 0.000 176.000 0.000 216.000 L 0.000 256.000 8.000 256.000 L 16.000 256.000 16.000 272.000 L 16.000 288.000 24.000 288.000 L 32.000 288.000 32.000 304.000 L 32.000 320.000 40.000 320.000 L 48.000 320.000 48.000 328.000 L 48.000 336.000 56.000 336.000 L 64.000 336.000 64.000 344.000 L 64.000 352.000 72.000 352.000 L 80.000 352.000 80.000 360.000 L 80.000 368.000 96.000 368.000 L 112.000 368.000 112.000 376.000 L 112.000 384.000 200.000 384.000 L 288.000 384.000 288.000 376.000 L 288.000 368.000 304.000 368.000 L 320.000 368.000 320.000 360.000 L 320.000 352.000 328.000 352.000 L 336.000 352.000 336.000 344.000 L 336.000 336.000 344.000 336.000 L 352.000 336.000 352.000 328.000 L 352.000 320.000 360.000 320.000 L 368.000 320.000 368.000 304.000 L 368.000 288.000 376.000 288.000 L 384.000 288.000 384.000 272.000 L 384.000 256.000 392.000 256.000 L 400.000 256.000 400.000 216.000 L 400.000 176.000 392.000 176.000 L 384.000 176.000 384.000 160.000 L 384.000 144.000 376.000 144.000 L 368.000 144.000 368.000 128.000 L 368.000 112.000 360.000 112.000 L 352.000 112.000 352.000 104.000 L 352.000 96.000 344.000 96.000 L 336.000 96.000 336.000 88.000 L 336.000 80.000 328.000 80.000 L 320.000 80.000 320.000 72.000 L 320.000 64.000 200.000 64.000 L 80.000 64.000 80.000 72.000 M320.000 88.000 L 320.000 96.000 328.000 96.000 L 336.000 96.000 336.000 104.000 L 336.000 112.000 344.000 112.000 L 352.000 112.000 352.000 128.000 L 352.000 144.000 360.000 144.000 L 368.000 144.000 368.000 160.000 L 368.000 176.000 376.000 176.000 L 384.000 176.000 384.000 216.000 L 384.000 256.000 376.000 256.000 L 368.000 256.000 368.000 272.000 L 368.000 288.000 360.000 288.000 L 352.000 288.000 352.000 304.000 L 352.000 320.000 344.000 320.000 L 336.000 320.000 336.000 328.000 L 336.000 336.000 328.000 336.000 L 320.000 336.000 320.000 344.000 L 320.000 352.000 304.000 352.000 L 288.000 352.000 288.000 360.000 L 288.000 368.000 200.000 368.000 L 112.000 368.000 112.000 360.000 L 112.000 352.000 96.000 352.000 L 80.000 352.000 80.000 344.000 L 80.000 336.000 72.000 336.000 L 64.000 336.000 64.000 328.000 L 64.000 320.000 56.000 320.000 L 48.000 320.000 48.000 304.000 L 48.000 288.000 40.000 288.000 L 32.000 288.000 32.000 272.000 L 32.000 256.000 24.000 256.000 L 16.000 256.000 16.000 216.000 L 16.000 176.000 24.000 176.000 L 32.000 176.000 32.000 160.000 L 32.000 144.000 40.000 144.000 L 48.000 144.000 48.000 128.000 L 48.000 112.000 56.000 112.000 L 64.000 112.000 64.000 104.000 L 64.000 96.000 72.000 96.000 L 80.000 96.000 80.000 88.000 L 80.000 80.000 200.000 80.000 L 320.000 80.000 320.000 88.000 M112.000 168.000 L 112.000 176.000 104.000 176.000 L 96.000 176.000 96.000 208.000 L 96.000 240.000 104.000 240.000 L 112.000 240.000 112.000 248.000 L 112.000 256.000 128.000 256.000 L 144.000 256.000 144.000 208.000 L 144.000 160.000 128.000 160.000 L 112.000 160.000 112.000 168.000 M256.000 208.000 L 256.000 256.000 272.000 256.000 L 288.000 256.000 288.000 248.000 L 288.000 240.000 296.000 240.000 L 304.000 240.000 304.000 208.000 L 304.000 176.000 296.000 176.000 L 288.000 176.000 288.000 168.000 L 288.000 160.000 272.000 160.000 L 256.000 160.000 256.000 208.000 M0.000 392.000 L 0.000 400.000 24.000 400.000 L 48.000 400.000 48.000 392.000 L 48.000 384.000 24.000 384.000 L 0.000 384.000 0.000 392.000 M352.000 392.000 L 352.000 400.000 376.000 400.000 L 400.000 400.000 400.000 392.000 L 400.000 384.000 376.000 384.000 L 352.000 384.000 352.000 392.000 " stroke="none" fill="#b1a9d6" fill-rule="evenodd"></path><path id="path2" d="M48.000 24.000 L 48.000 48.000 32.000 48.000 L 16.000 48.000 16.000 56.000 L 16.000 64.000 8.000 64.000 L 0.000 64.000 0.000 120.000 L 0.000 176.000 8.000 176.000 L 16.000 176.000 16.000 160.000 L 16.000 144.000 24.000 144.000 L 32.000 144.000 32.000 128.000 L 32.000 112.000 40.000 112.000 L 48.000 112.000 48.000 104.000 L 48.000 96.000 56.000 96.000 L 64.000 96.000 64.000 88.000 L 64.000 80.000 72.000 80.000 L 80.000 80.000 80.000 72.000 L 80.000 64.000 200.000 64.000 L 320.000 64.000 320.000 72.000 L 320.000 80.000 328.000 80.000 L 336.000 80.000 336.000 88.000 L 336.000 96.000 344.000 96.000 L 352.000 96.000 352.000 104.000 L 352.000 112.000 360.000 112.000 L 368.000 112.000 368.000 128.000 L 368.000 144.000 376.000 144.000 L 384.000 144.000 384.000 160.000 L 384.000 176.000 392.000 176.000 L 400.000 176.000 400.000 120.000 L 400.000 64.000 392.000 64.000 L 384.000 64.000 384.000 56.000 L 384.000 48.000 368.000 48.000 L 352.000 48.000 352.000 24.000 L 352.000 0.000 312.000 0.000 L 272.000 0.000 272.000 24.000 L 272.000 48.000 264.000 48.000 L 256.000 48.000 256.000 40.000 L 256.000 32.000 200.000 32.000 L 144.000 32.000 144.000 40.000 L 144.000 48.000 136.000 48.000 L 128.000 48.000 128.000 24.000 L 128.000 0.000 88.000 0.000 L 48.000 0.000 48.000 24.000 M0.000 320.000 L 0.000 384.000 24.000 384.000 L 48.000 384.000 48.000 392.000 L 48.000 400.000 200.000 400.000 L 352.000 400.000 352.000 392.000 L 352.000 384.000 376.000 384.000 L 400.000 384.000 400.000 320.000 L 400.000 256.000 392.000 256.000 L 384.000 256.000 384.000 272.000 L 384.000 288.000 376.000 288.000 L 368.000 288.000 368.000 304.000 L 368.000 320.000 360.000 320.000 L 352.000 320.000 352.000 328.000 L 352.000 336.000 344.000 336.000 L 336.000 336.000 336.000 344.000 L 336.000 352.000 328.000 352.000 L 320.000 352.000 320.000 360.000 L 320.000 368.000 304.000 368.000 L 288.000 368.000 288.000 376.000 L 288.000 384.000 200.000 384.000 L 112.000 384.000 112.000 376.000 L 112.000 368.000 96.000 368.000 L 80.000 368.000 80.000 360.000 L 80.000 352.000 72.000 352.000 L 64.000 352.000 64.000 344.000 L 64.000 336.000 56.000 336.000 L 48.000 336.000 48.000 328.000 L 48.000 320.000 40.000 320.000 L 32.000 320.000 32.000 304.000 L 32.000 288.000 24.000 288.000 L 16.000 288.000 16.000 272.000 L 16.000 256.000 8.000 256.000 L 0.000 256.000 0.000 320.000 " stroke="none" fill="#e4e4fc" fill-rule="evenodd"></path><path id="path3" d="M64.000 280.000 L 64.000 288.000 88.000 288.000 L 112.000 288.000 112.000 280.000 L 112.000 272.000 88.000 272.000 L 64.000 272.000 64.000 280.000 M288.000 280.000 L 288.000 288.000 312.000 288.000 L 336.000 288.000 336.000 280.000 L 336.000 272.000 312.000 272.000 L 288.000 272.000 288.000 280.000 " stroke="none" fill="#f4ace4" fill-rule="evenodd"></path><path id="path4" d="" stroke="none" fill="#e8b4e8" fill-rule="evenodd"></path></g></svg>